<svg width="158" height="16" viewBox="0 0 158 16" fill="none" xmlns="http://www.w3.org/2000/svg">
<path d="M135.75 8.63636C135.75 8.63636 130.45 10.6435 130.5 15L23.75 15V1L131.375 1C130.177 4.94809 135.75 8.63636 135.75 8.63636Z" fill="#F79F47" stroke="#390404" stroke-width="1.5" stroke-linecap="round"/>
<path d="M135.034 8.63636C132.072 6.01881 130.456 4.54035 131.256 1C133.191 1 142.019 2.24568 146.25 3.745C146.838 3.95322 147.423 4.16633 148 4.38167C152.658 6.12046 156.75 8.00494 156.75 8.63636C156.75 9.25338 152.637 10.7678 148 12.1645C147.423 12.3384 146.837 12.5106 146.25 12.6789C141.83 13.9469 132.092 15 130.5 15C130.713 11.6795 131.888 10.3839 135.034 8.63636Z" fill="#FBEACE"/>
<path d="M148 12.1645C147.423 12.3384 146.837 12.5106 146.25 12.6789C141.83 13.9469 132.092 15 130.5 15C130.713 11.6795 131.888 10.3839 135.034 8.63636C132.072 6.01881 130.456 4.54035 131.256 1C133.191 1 142.019 2.24568 146.25 3.745C146.838 3.95322 147.423 4.16633 148 4.38167M148 12.1645C152.637 10.7678 156.75 9.25339 156.75 8.63636C156.75 8.00494 152.658 6.12046 148 4.38167M148 12.1645V4.38167" stroke="#390404" stroke-width="1.5"/>
<path d="M156.75 8.63643C156.75 9.25345 152.637 10.7679 148 12.1646V4.38174C152.658 6.12052 156.75 8.005 156.75 8.63643Z" fill="#390404" stroke="#390404" stroke-width="1.5"/>
<path d="M16.75 1V15H23.75V8V1H16.75Z" stroke="#390404" stroke-width="1.5"/>
<path d="M8 15H16.75V1H8C5.375 1 1 3.54545 1 8C1 12.4545 6.25 15 8 15Z" fill="#FF8F86" stroke="#390404" stroke-width="1.5"/>
</svg>
